<svg xmlns="http://www.w3.org/2000/svg" xmlns:xlink="http://www.w3.org/1999/xlink" width="128" height="128" viewBox="0 0 128 128">
  <defs>
    <clipPath id="clip-custom_1">
      <rect width="128" height="128"/>
    </clipPath>
  </defs>
  <g id="custom_1" data-name="custom – 1" clip-path="url(#clip-custom_1)">
    <path id="Subtraction_1" data-name="Subtraction 1" d="M79.465,79H48.316l-.322-1.017h.51V74.056H46.749l-.249-.785h2V69.343H45.4v.471l-.62-1.956V64.631H43.762l-.249-.785h1.272V59.918H42.268l-.249-.784h2.765V55.206h-3.1v2.873l-.62-1.956v-.916h-.29l-.249-.785h.539V50.493H39.281l-.249-.784h2.033V45.781h-3.1v.562l-.619-1.954V41.068H36.294l-.249-.784h1.3V36.356H34.8l-.249-.786h2.8V31.643h-3.1V34.61L7.666-49.252H36l13.4,43.2h-.277v3.926h1.5l.244.786H49.125V2.582h2.958l7.555,24.348H56.563v3.927h3.1V27.012l.62,2v1.847h.573l.244.785h-.817V35.57h2.035l.244.786H60.283v3.928h3.1V39l.6,1.923h.352L92.662-49.252h28.508l-26.306,80.9h-.336v1.033l-1.391,4.279v-.6h-3.1v3.928h2.017l-.255.784H90.038V45h.485l-.255.785h-.229v.705l-1.3,4.007H86.318v3.928h1.14l-.255.785h-.884v2.719l-.648,1.993H82.6v3.928h1.794l-.255.785H82.6v3.928h.262l-.255.784H82.6v.02l-.619,1.9V69.343h-3.1v3.928h2.448l-.255.785H78.88v3.928H79.8L79.465,79h0Zm-4.3-4.944v3.928h3.1V74.056Zm-3.719,0v3.928h3.1V74.056Zm-3.72,0v3.928h3.1V74.056Zm-3.72,0v3.928h3.1V74.056Zm-3.719,0v3.928h3.1V74.056Zm-3.72,0v3.928h3.1V74.056Zm-3.72,0v3.928h3.1V74.056Zm-3.719,0v3.928h3.1V74.056ZM75.16,69.343v3.928h3.1V69.343Zm-3.719,0v3.928h3.1V69.343Zm-3.72,0v3.928h3.1V69.343Zm-3.72,0v3.928h3.1V69.343Zm-3.719,0v3.928h3.1V69.343Zm-3.72,0v3.928h3.1V69.343Zm-3.72,0v3.928h3.1V69.343Zm-3.719,0v3.928h3.1V69.343ZM78.88,64.631v3.928h3.1V64.631Zm-7.439,0v3.928h3.1V64.631Zm-3.72,0v3.928h3.1V64.631Zm-3.72,0v3.928h3.1V64.631Zm-3.719,0v3.928h3.1V64.631Zm-3.72,0v3.928h3.1V64.631Zm-3.72,0v3.928h3.1V64.631Zm-3.719,0v3.928h3.1V64.631Zm-3.72,0v3.928h3.1V64.631ZM78.88,59.918v3.928h3.1V59.918Zm-7.439,0v3.928h3.1V59.918Zm-3.72,0v3.928h3.1V59.918Zm-3.72,0v3.928h3.1V59.918Zm-3.719,0v3.928h3.1V59.918Zm-3.72,0v3.928h3.1V59.918Zm-3.72,0v3.928h3.1V59.918Zm-3.719,0v3.928h3.1V59.918Zm-3.72,0v3.928h3.1V59.918ZM82.6,55.206v3.928h3.1V55.206Zm-3.719,0v3.928h3.1V55.206Zm-7.439,0v3.928h3.1V55.206Zm-7.439,0v3.928h3.1V55.206Zm-3.719,0v3.928h3.1V55.206Zm-3.72,0v3.928h3.1V55.206Zm-3.72,0v3.928h3.1V55.206Zm-3.719,0v3.928h3.1V55.206Zm-3.72,0v3.928h3.1V55.206ZM82.6,50.493v3.928h3.1V50.493Zm-3.719,0v3.928h3.1V50.493Zm-7.439,0v3.928h3.1V50.493Zm-7.439,0v3.928h3.1V50.493Zm-3.719,0v3.928h3.1V50.493Zm-3.72,0v3.928h3.1V50.493Zm-3.72,0v3.928h3.1V50.493Zm-3.719,0v3.928h3.1V50.493Zm-3.72,0v3.928h3.1V50.493Zm-3.72,0v3.928h3.1V50.493ZM82.6,45.781v3.928h3.1V45.781Zm-3.719,0v3.928h3.1V45.781ZM64,45.781v3.928h3.1V45.781Zm-3.719,0v3.928h3.1V45.781Zm-3.72,0v3.928h3.1V45.781Zm-3.72,0v3.928h3.1V45.781Zm-3.719,0v3.928h3.1V45.781Zm-3.72,0v3.928h3.1V45.781Zm-3.72,0v3.928h3.1V45.781ZM82.6,41.068V45h3.1V41.068Zm-3.719,0V45h3.1V41.068Zm-18.6,0V45h3.1V41.068Zm-3.72,0V45h3.1V41.068Zm-3.72,0V45h3.1V41.068Zm-3.719,0V45h3.1V41.068Zm-3.72,0V45h3.1V41.068Zm-3.72,0V45h3.1V41.068Zm-3.72,0V45h3.1V41.068ZM82.6,36.356v3.928h3.1V36.356Zm-3.719,0v3.928h3.1V36.356Zm-22.316,0v3.928h3.1V36.356Zm-3.72,0v3.928h3.1V36.356Zm-3.719,0v3.928h3.1V36.356Zm-7.439,0v3.928h3.1V36.356Zm-3.72,0v3.928h3.1V36.356Zm52.072-4.713V35.57h3.1V31.643Zm-7.439,0V35.57h3.1V31.643Zm-3.719,0V35.57h3.1V31.643Zm-22.316,0V35.57h3.1V31.643Zm-3.72,0V35.57h3.1V31.643Zm-3.719,0V35.57h3.1V31.643Zm-7.439,0V35.57h3.1V31.643Zm-3.72,0V35.57h3.1V31.643Zm52.072-4.712v3.927h3.1V26.931Zm-7.439,0v3.927h3.1V26.931Zm-29.755,0v3.927h3.1V26.931Zm-3.719,0v3.927h3.1V26.931Zm-7.439,0v3.927h3.1V26.931Zm-3.72,0v3.927h3.1V26.931Zm-3.719,0v3.927h3.1V26.931Zm55.791-4.713v3.927h3.1V22.218Zm-7.439,0v3.927h3.1V22.218Zm-29.755,0v3.927h3.1V22.218Zm-3.719,0v3.927h3.1V22.218Zm-11.159,0v3.927h3.1V22.218Zm-3.719,0v3.927h3.1V22.218ZM82.6,17.506v3.927h3.1V17.506Zm-33.474,0v3.927h3.1V17.506Zm-11.159,0v3.927h3.1V17.506ZM82.6,12.793v3.927h3.1V12.793Zm-33.474,0v3.927h3.1V12.793Zm-11.159,0v3.927h3.1V12.793ZM82.6,8.081v3.927h3.1V8.081Zm-33.474,0v3.927h3.1V8.081Zm-11.159,0v3.927h3.1V8.081ZM82.6,3.368V7.294h3.1V3.368Zm-33.474,0V7.294h3.1V3.368Zm-11.159,0V7.294h3.1V3.368Z" transform="translate(0.328 49)" fill="#ff7043"/>
  </g>
</svg>
