<svg xmlns="http://www.w3.org/2000/svg" xmlns:xlink="http://www.w3.org/1999/xlink" width="253" height="77" viewBox="0 0 253 77">
  <defs>
    <linearGradient id="linear-gradient" x1="0.5" x2="0.5" y2="1" gradientUnits="objectBoundingBox">
      <stop offset="0" stop-color="#ff7043" stop-opacity="0"/>
      <stop offset="0" stop-color="#fff" stop-opacity="0"/>
      <stop offset="1" stop-color="#fff"/>
    </linearGradient>
    <clipPath id="clip-custom_1">
      <rect width="253" height="77"/>
    </clipPath>
  </defs>
  <g id="custom_1" data-name="custom – 1" clip-path="url(#clip-custom_1)">
    <g id="Path_5" data-name="Path 5" transform="translate(-39 -137)" fill="#ff7043">
      <path d="M291.671,180h0Z" stroke="none"/>
      <path d="M 0 180 L 291.6707153320312 180 L 0 180 Z" stroke="none" fill="#707070"/>
    </g>
    <path id="Union_14" data-name="Union 14" d="M249.119,67.73V64.566h4.674V67.73Zm-5.609,0V64.566h4.674V67.73Zm-5.61,0V64.566h4.675V67.73Zm-5.609,0V64.566h4.675V67.73Zm-5.609,0V64.566h4.675V67.73Zm-5.609,0V64.566h4.675V67.73Zm-5.609,0V64.566h4.675V67.73Zm-5.609,0V64.566h4.674V67.73Zm-5.609,0V64.566h4.674V67.73Zm-5.609,0V64.566h4.674V67.73Zm-5.609,0V64.566H197.7V67.73Zm-5.609,0V64.566H192.1V67.73Zm-5.609,0V64.566h4.674V67.73Zm-5.609,0V64.566h4.674V67.73Zm-5.61,0V64.566h4.675V67.73Zm-5.609,0V64.566h4.675V67.73Zm-5.609,0V64.566h4.675V67.73Zm-5.609,0V64.566h4.675V67.73Zm-5.609,0V64.566h4.675V67.73Zm-5.609,0V64.566h4.674V67.73Zm-6.773,0V64.564h4.674V67.73Zm-5.609,0V64.564h4.674V67.73Zm-5.609,0V64.564h4.674V67.73Zm-5.609,0V64.564h4.674V67.73Zm-5.609,0V64.564h4.674V67.73Zm-5.609,0V64.564h4.674V67.73Zm-5.61,0V64.564H106.8V67.73Zm-5.609,0V64.564h4.675V67.73Zm-5.609,0V64.564h4.675V67.73Zm-5.609,0V64.564h4.674V67.73Zm-5.609,0V64.564h4.674V67.73Zm-5.609,0V64.564h4.674V67.73Zm-5.609,0V64.564h4.674V67.73Zm-5.609,0V64.564h4.674V67.73Zm-5.609,0V64.564h4.674V67.73Zm-5.609,0V64.564h4.674V67.73Zm-5.609,0V64.564H50.71V67.73Zm-5.609,0V64.564H45.1V67.73Zm-5.61,0V64.564h4.675V67.73Zm-5.609,0V64.564h4.675V67.73Zm-6.773,0V64.564H27.11V67.73Zm-5.609,0V64.564H21.5V67.73Zm-5.608,0V64.564h4.673V67.73Zm-5.61,0V64.564h4.674V67.73ZM0,67.73V64.564H4.675V67.73Zm249.119-3.8V60.767h4.674v3.165Zm-5.609,0V60.767h4.674v3.165Zm-5.61,0V60.767h4.675v3.165Zm-5.609,0V60.767h4.675v3.165Zm-5.609,0V60.767h4.675v3.165Zm-5.609,0V60.767h4.675v3.165Zm-5.609,0V60.767h4.675v3.165Zm-5.609,0V60.767h4.674v3.165Zm-5.609,0V60.767h4.674v3.165Zm-5.609,0V60.767h4.674v3.165Zm-5.609,0V60.767H197.7v3.165Zm-5.609,0V60.767H192.1v3.165Zm-5.609,0V60.767h4.674v3.165Zm-5.609,0V60.767h4.674v3.165Zm-5.61,0V60.767h4.675v3.165Zm-5.609,0V60.767h4.675v3.165Zm-5.609,0V60.767h4.675v3.165Zm-5.609,0V60.767h4.675v3.165Zm-5.609,0V60.767h4.675v3.165Zm-5.609,0V60.767h4.674v3.165Zm-6.773,0V60.767h4.674v3.165Zm-5.609,0V60.767h4.674v3.165Zm-5.609,0V60.767h4.674v3.165Zm-5.609,0V60.767h4.674v3.165Zm-5.609,0V60.767h4.674v3.165Zm-5.609,0V60.767h4.674v3.165Zm-5.61,0V60.767H106.8v3.165Zm-5.609,0V60.767h4.675v3.165Zm-5.609,0V60.767h4.675v3.165Zm-5.609,0V60.767h4.674v3.165Zm-5.609,0V60.767h4.674v3.165Zm-5.609,0V60.767h4.674v3.165Zm-5.609,0V60.767h4.674v3.165Zm-5.609,0V60.767h4.674v3.165Zm-5.609,0V60.767h4.674v3.165Zm-5.609,0V60.767h4.674v3.165Zm-5.609,0V60.767H50.71v3.165Zm-5.609,0V60.767H45.1v3.165Zm-5.61,0V60.767h4.675v3.165Zm-5.609,0V60.767h4.675v3.165Zm-6.773,0V60.767H27.11v3.165Zm-5.609,0V60.767H21.5v3.165Zm-5.608,0V60.767h4.673v3.165Zm-5.61,0V60.767h4.674v3.165ZM0,63.932V60.767H4.675v3.165Zm243.51-3.8V56.969h4.674v3.165Zm-5.61,0V56.969h4.675v3.165Zm-5.609,0V56.969h4.675v3.165Zm-5.609,0V56.969h4.675v3.165Zm-5.609,0V56.969h4.675v3.165Zm-5.609,0V56.969h4.675v3.165Zm-5.609,0V56.969h4.674v3.165Zm-5.609,0V56.969h4.674v3.165Zm-5.609,0V56.969h4.674v3.165Zm-5.609,0V56.969H197.7v3.165Zm-5.609,0V56.969H192.1v3.165Zm-5.609,0V56.969h4.674v3.165Zm-5.609,0V56.969h4.674v3.165Zm-5.61,0V56.969h4.675v3.165Zm-11.218,0V56.969h4.675v3.165Zm-5.609,0V56.969h4.675v3.165Zm-5.609,0V56.969h4.675v3.165Zm-5.609,0V56.969h4.674v3.165Zm-6.773,0V56.969h4.674v3.165Zm-5.609,0V56.969h4.674v3.165Zm-5.609,0V56.969h4.674v3.165Zm-5.609,0V56.969h4.674v3.165Zm-11.218,0V56.969h4.674v3.165Zm-5.61,0V56.969H106.8v3.165Zm-5.609,0V56.969h4.675v3.165Zm-5.609,0V56.969h4.675v3.165Zm-5.609,0V56.969h4.674v3.165Zm-5.609,0V56.969h4.674v3.165Zm-5.609,0V56.969h4.674v3.165Zm-5.609,0V56.969h4.674v3.165Zm-5.609,0V56.969h4.674v3.165Zm-5.609,0V56.969h4.674v3.165Zm-5.609,0V56.969h4.674v3.165Zm-5.609,0V56.969H50.71v3.165Zm-5.609,0V56.969H45.1v3.165Zm-5.61,0V56.969h4.675v3.165Zm-5.609,0V56.969h4.675v3.165Zm-6.773,0V56.969H27.11v3.165Zm-5.609,0V56.969H21.5v3.165Zm-5.608,0V56.969h4.673v3.165Zm-5.61,0V56.969h4.674v3.165Zm237.9-3.8V53.171h4.674v3.166Zm-5.61,0V53.171h4.675v3.166Zm-5.609,0V53.171h4.675v3.166Zm-5.609,0V53.171h4.675v3.166Zm-5.609,0V53.171h4.675v3.166Zm-5.609,0V53.171h4.675v3.166Zm-5.609,0V53.171h4.674v3.166Zm-5.609,0V53.171h4.674v3.166Zm-5.609,0V53.171h4.674v3.166Zm-5.609,0V53.171H197.7v3.166Zm-5.609,0V53.171H192.1v3.166Zm-5.609,0V53.171h4.674v3.166Zm-5.609,0V53.171h4.674v3.166Zm-5.61,0V53.171h4.675v3.166Zm-11.218,0V53.171h4.675v3.166Zm-5.609,0V53.171h4.675v3.166Zm-5.609,0V53.171h4.675v3.166Zm-5.609,0V53.171h4.674v3.166Zm-6.773,0V53.171h4.674v3.165Zm-5.609,0V53.171h4.674v3.165Zm-5.609,0V53.171h4.674v3.165Zm-5.609,0V53.171h4.674v3.165Zm-11.218,0V53.171h4.674v3.165Zm-5.61,0V53.171H106.8v3.165Zm-5.609,0V53.171h4.675v3.165Zm-5.609,0V53.171h4.675v3.165Zm-5.609,0V53.171h4.674v3.165Zm-5.609,0V53.171h4.674v3.165Zm-5.609,0V53.171h4.674v3.165Zm-5.609,0V53.171h4.674v3.165Zm-5.609,0V53.171h4.674v3.165Zm-5.609,0V53.171h4.674v3.165Zm-5.609,0V53.171h4.674v3.165Zm-5.609,0V53.171H50.71v3.165Zm-5.609,0V53.171H45.1v3.165Zm-5.61,0V53.171h4.675v3.165Zm-5.609,0V53.171h4.675v3.165Zm-6.773,0V53.171H27.11v3.165Zm-5.609,0V53.171H21.5v3.165Zm-5.608,0V53.171h4.673v3.165Zm-5.61,0V53.171h4.674v3.165Zm237.9-3.8V49.373h4.674v3.166Zm-5.61,0V49.373h4.675v3.166Zm-11.218,0V49.373h4.675v3.166Zm-5.609,0V49.373h4.675v3.166Zm-5.609,0V49.373h4.675v3.166Zm-5.609,0V49.373h4.674v3.166Zm-5.609,0V49.373h4.674v3.166Zm-5.609,0V49.373h4.674v3.166Zm-5.609,0V49.373H197.7v3.166Zm-5.609,0V49.373H192.1v3.166Zm-5.609,0V49.373h4.674v3.166Zm-11.219,0V49.373h4.675v3.166Zm-11.218,0V49.373h4.675v3.166Zm-5.609,0V49.373h4.675v3.166Zm-5.609,0V49.373h4.675v3.166Zm-5.609,0V49.373h4.674v3.166Zm-6.773,0V49.373h4.674v3.166Zm-5.609,0V49.373h4.674v3.166Zm-5.609,0V49.373h4.674v3.166Zm-5.609,0V49.373h4.674v3.166Zm-11.218,0V49.373h4.674v3.166Zm-11.219,0V49.373h4.675v3.166Zm-5.609,0V49.373h4.675v3.166Zm-5.609,0V49.373h4.674v3.166Zm-5.609,0V49.373h4.674v3.166Zm-5.609,0V49.373h4.674v3.166Zm-5.609,0V49.373h4.674v3.166Zm-5.609,0V49.373h4.674v3.166Zm-5.609,0V49.373h4.674v3.166Zm-5.609,0V49.373h4.674v3.166Zm-11.218,0V49.373H45.1v3.166Zm-5.61,0V49.373h4.675v3.166Zm-5.609,0V49.373h4.675v3.166Zm-6.773,0V49.373H27.11v3.165Zm-5.609,0V49.373H21.5v3.165Zm-5.608,0V49.373h4.673v3.165Zm226.682-3.8V45.576h4.675v3.165Zm-11.218,0V45.576h4.675v3.165Zm-11.218,0V45.576h4.675v3.165Zm-5.609,0V45.576h4.674v3.165Zm-5.609,0V45.576h4.674v3.165Zm-5.609,0V45.576h4.674v3.165Zm-5.609,0V45.576H197.7v3.165Zm-5.609,0V45.576H192.1v3.165Zm-5.609,0V45.576h4.674v3.165Zm-11.219,0V45.576h4.675v3.165Zm-11.218,0V45.576h4.675v3.165Zm-5.609,0V45.576h4.675v3.165Zm-11.218,0V45.576h4.674v3.165Zm-6.773,0V45.575h4.674v3.166Zm-5.609,0V45.575h4.674v3.166Zm-5.609,0V45.575h4.674v3.166Zm-5.609,0V45.575h4.674v3.166Zm-11.218,0V45.575h4.674v3.166Zm-11.219,0V45.575h4.675v3.166Zm-5.609,0V45.575h4.675v3.166Zm-5.609,0V45.575h4.674v3.166Zm-5.609,0V45.575h4.674v3.166Zm-5.609,0V45.575h4.674v3.166Zm-5.609,0V45.575h4.674v3.166Zm-5.609,0V45.575h4.674v3.166Zm-5.609,0V45.575h4.674v3.166Zm-5.609,0V45.575h4.674v3.166Zm-11.218,0V45.575H45.1v3.166Zm-5.61,0V45.575h4.675v3.166Zm-5.609,0V45.575h4.675v3.166Zm-6.773,0V45.575H27.11v3.166Zm-5.609,0V45.575H21.5v3.166Zm-5.608,0V45.575h4.673v3.166Zm226.682-3.8V41.778h4.675v3.165Zm-11.218,0V41.778h4.675v3.165Zm-11.218,0V41.778h4.675v3.165Zm-5.609,0V41.778h4.674v3.165Zm-5.609,0V41.778h4.674v3.165Zm-5.609,0V41.778h4.674v3.165Zm-5.609,0V41.778H197.7v3.165Zm-5.609,0V41.778H192.1v3.165Zm-5.609,0V41.778h4.674v3.165Zm-22.436,0V41.778h4.675v3.165Zm-16.826,0V41.778h4.674v3.165Zm-6.773,0V41.776h4.674v3.166Zm-11.218,0V41.776h4.674v3.166Zm-5.609,0V41.776h4.674v3.166Zm-22.436,0V41.776h4.675v3.166Zm-5.609,0V41.776h4.675v3.166Zm-5.609,0V41.776h4.674v3.166Zm-5.609,0V41.776h4.674v3.166Zm-5.609,0V41.776h4.674v3.166Zm-5.609,0V41.776h4.674v3.166Zm-5.609,0V41.776h4.674v3.166Zm-5.609,0V41.776h4.674v3.166Zm-5.609,0V41.776h4.674v3.166Zm-11.218,0V41.776H45.1v3.166Zm-5.61,0V41.776h4.675v3.166Zm-5.609,0V41.776h4.675v3.166Zm-6.773,0V41.776H27.11v3.165Zm-5.609,0V41.776H21.5v3.165Zm-5.608,0V41.776h4.673v3.165Zm226.682-3.8V37.98h4.675v3.165Zm-11.218,0V37.98h4.675v3.165Zm-11.218,0V37.98h4.675v3.165Zm-5.609,0V37.98h4.674v3.165Zm-5.609,0V37.98h4.674v3.165Zm-16.826,0V37.98H192.1v3.165Zm-28.045,0V37.98h4.675v3.165Zm-16.826,0V37.98h4.674v3.165Zm-6.773,0V37.98h4.674v3.165Zm-11.218,0V37.98h4.674v3.165Zm-5.609,0V37.98h4.674v3.165Zm-28.045,0V37.98h4.675v3.165Zm-5.609,0V37.98h4.674v3.165Zm-5.609,0V37.98h4.674v3.165Zm-5.609,0V37.98h4.674v3.165Zm-5.609,0V37.98h4.674v3.165Zm-5.609,0V37.98h4.674v3.165Zm-5.609,0V37.98h4.674v3.165Zm-5.609,0V37.98h4.674v3.165Zm-11.218,0V37.98H45.1v3.165Zm-5.61,0V37.98h4.675v3.165Zm-5.609,0V37.98h4.675v3.165Zm-6.773,0V37.98H27.11v3.165Zm-5.609,0V37.98H21.5v3.165Zm-5.608,0V37.98h4.673v3.165Zm226.682-3.8V34.182h4.675v3.165Zm-11.218,0V34.182h4.675v3.165Zm-11.218,0V34.182h4.675v3.165Zm-11.218,0V34.182h4.674v3.165Zm-16.826,0V34.182H192.1v3.165Zm-28.045,0V34.182h4.675v3.165Zm-16.826,0V34.182h4.674v3.165Zm-6.773,0V34.182h4.674v3.165Zm-11.218,0V34.182h4.674v3.165Zm-5.609,0V34.182h4.674v3.165Zm-28.045,0V34.182h4.675v3.165Zm-5.609,0V34.182h4.674v3.165Zm-5.609,0V34.182h4.674v3.165Zm-5.609,0V34.182h4.674v3.165Zm-11.218,0V34.182h4.674v3.165Zm-5.609,0V34.182h4.674v3.165Zm-5.609,0V34.182h4.674v3.165Zm-11.218,0V34.182H45.1v3.165Zm-5.61,0V34.182h4.675v3.165Zm-5.609,0V34.182h4.675v3.165Zm-6.773,0V34.18H27.11v3.166Zm-5.609,0V34.18H21.5v3.166Zm-5.608,0V34.18h4.673v3.166Zm226.682-3.8V30.384h4.675v3.165Zm-22.435,0V30.384h4.675v3.165Zm-11.218,0V30.384h4.674v3.165Zm-16.826,0V30.384H192.1v3.165Zm-28.045,0V30.384h4.675v3.165Zm-16.826,0V30.384h4.674v3.165Zm-6.773,0V30.384h4.674v3.165Zm-11.218,0V30.384h4.674v3.165Zm-5.609,0V30.384h4.674v3.165Zm-28.045,0V30.384h4.675v3.165Zm-5.609,0V30.384h4.674v3.165Zm-5.609,0V30.384h4.674v3.165Zm-5.609,0V30.384h4.674v3.165Zm-11.218,0V30.384h4.674v3.165Zm-5.609,0V30.384h4.674v3.165Zm-5.609,0V30.384h4.674v3.165Zm-11.218,0V30.384H45.1v3.165Zm-11.219,0V30.384h4.675v3.165Zm-6.773,0V30.384H27.11v3.165Zm-11.217,0V30.384h4.673v3.165ZM237.9,29.75V26.585h4.675V29.75Zm-22.435,0V26.585h4.675V29.75Zm-11.218,0V26.585h4.674V29.75Zm-16.826,0V26.585H192.1V29.75Zm-51.644,0V26.585h4.674V29.75Zm-11.218,0V26.585h4.674V29.75Zm-33.654,0V26.585h4.675V29.75Zm-5.609,0V26.585h4.674V29.75Zm-5.609,0V26.585h4.674V29.75Zm-5.609,0V26.585h4.674V29.75Zm-11.218,0V26.585h4.674V29.75Zm-5.609,0V26.585h4.674V29.75Zm-5.609,0V26.585h4.674V29.75Zm-11.218,0V26.585H45.1V29.75Zm-11.219,0V26.585h4.675V29.75Zm-6.773,0V26.585H27.11V29.75Zm-11.217,0V26.585h4.673V29.75Zm124.559-3.8V22.787h4.674v3.165Zm-11.218,0V22.787h4.674v3.165Zm-33.654,0V22.787h4.675v3.165Zm-11.218,0V22.787h4.674v3.165Zm-5.609,0V22.787h4.674v3.165Zm-16.826,0V22.787h4.674v3.165Zm-5.609,0V22.787h4.674v3.165Zm-22.436,0V22.787h4.675v3.165Zm-6.773,0V22.787H27.11v3.165Zm102.125-3.8V18.989h4.674v3.165Zm-33.654,0V18.989h4.675v3.165Zm-16.826,0V18.989h4.674v3.165Zm-16.826,0V18.989h4.674v3.165Zm-28.045,0V18.989h4.675v3.165Zm-6.773,0V18.989H27.11v3.165Zm0-3.8V15.191H27.11v3.166Zm102.125,0V15.191h4.674v3.165Zm-50.48,0V15.191h4.674v3.165Zm-16.826,0V15.191h4.674v3.165Zm-28.045,0V15.191h4.675v3.165Zm95.351-3.8V11.395h4.674v3.165Zm-50.48,0V11.395h4.674v3.165Zm-16.826,0V11.395h4.674v3.165Zm-28.045,0V11.395h4.675v3.165Zm-6.773,0V11.393H27.11v3.165Zm102.125-3.8V7.6h4.674v3.165Zm-50.48,0V7.6h4.674v3.165Zm-16.826,0V7.6h4.674v3.165Zm-28.045,0V7.6h4.675v3.165Zm-6.773,0V7.6H27.11v3.165Zm51.645-3.8V3.8h4.674V6.963Zm0-3.8V0h4.674V3.165Z" transform="translate(-1.123 9.27)" fill="url(#linear-gradient)"/>
    <path id="Path_6" data-name="Path 6" d="M22.433,38.588,35.667-34.8H26.621L17.63,16.8h-.112L8.64-34.8H-.35l12.9,73.39Zm19.6-61.364V-34.8H34.1v12.026ZM34.1-14.554V38.588h7.929V-14.554Zm32,26.622a50.652,50.652,0,0,1-.391,6.373,26.247,26.247,0,0,1-1.228,5.448,11.011,11.011,0,0,1-2.094,3.752,4,4,0,0,1-6.059,0,10.735,10.735,0,0,1-2.122-3.752,26.247,26.247,0,0,1-1.228-5.448,50.652,50.652,0,0,1-.391-6.373,51.508,51.508,0,0,1,.391-6.476A26.247,26.247,0,0,1,54.206.145a10.735,10.735,0,0,1,2.122-3.752,3.985,3.985,0,0,1,3.015-1.388,3.957,3.957,0,0,1,3.043,1.388A11.011,11.011,0,0,1,64.48.145a26.247,26.247,0,0,1,1.228,5.448A51.509,51.509,0,0,1,66.1,12.068ZM44.936-34.8v73.39h7.538V31.8h.112q1.284,4.42,3.8,6.27a9.363,9.363,0,0,0,5.7,1.85,6.982,6.982,0,0,0,4.3-1.645A14.444,14.444,0,0,0,70.2,33.243a34.826,34.826,0,0,0,2.764-8.686,64.928,64.928,0,0,0,1.061-12.591A64.928,64.928,0,0,0,72.968-.626,34.826,34.826,0,0,0,70.2-9.311a14.444,14.444,0,0,0-3.825-5.037,6.982,6.982,0,0,0-4.3-1.645,8.4,8.4,0,0,0-5.165,1.9,12.613,12.613,0,0,0-3.937,6.013h-.112V-34.8Zm50.2,41.115h-12.9A29.662,29.662,0,0,1,82.6,2.818a15.3,15.3,0,0,1,1.061-3.7,8.682,8.682,0,0,1,2.01-2.929,4.424,4.424,0,0,1,3.155-1.182,4.6,4.6,0,0,1,4.328,2.878A25.467,25.467,0,0,1,95.136,6.312Zm-12.9,9.251h20.828a68.2,68.2,0,0,0-.558-11.821A43.263,43.263,0,0,0,99.967-6.331a19.631,19.631,0,0,0-4.5-7.041,8.983,8.983,0,0,0-6.422-2.621,9.4,9.4,0,0,0-6,2.159,18.1,18.1,0,0,0-4.663,5.91A34.178,34.178,0,0,0,75.369.967a54.9,54.9,0,0,0-1.061,11.1,57.476,57.476,0,0,0,1.033,11.307,34.071,34.071,0,0,0,2.932,8.84,15.88,15.88,0,0,0,4.635,5.7,10.141,10.141,0,0,0,6.142,2,10.587,10.587,0,0,0,8.376-4.111q3.462-4.111,5.137-13.671h-6.98a10.1,10.1,0,0,1-2.122,4.677,5.121,5.121,0,0,1-4.132,2.21,5.611,5.611,0,0,1-5.137-3.186Q82.4,22.656,82.237,15.563Zm41.154-1.336H114.9a42.081,42.081,0,0,0,1.34,11.718,24.8,24.8,0,0,0,3.769,8.12,14.913,14.913,0,0,0,5.472,4.677,14.592,14.592,0,0,0,6.394,1.49,14.36,14.36,0,0,0,7.175-1.747,15.157,15.157,0,0,0,5.193-4.882A23.323,23.323,0,0,0,147.4,26.15a39.131,39.131,0,0,0,1.061-9.354A30.357,30.357,0,0,0,147.04,6.672,21.092,21.092,0,0,0,143.661.351a13.917,13.917,0,0,0-3.937-3.443,25.448,25.448,0,0,0-3.1-1.49q-3.741-1.747-6.059-2.878a17.1,17.1,0,0,1-3.63-2.261,5.656,5.656,0,0,1-1.759-2.467,11.277,11.277,0,0,1-.447-3.495,11.617,11.617,0,0,1,.558-3.906,8.379,8.379,0,0,1,1.424-2.57A4.8,4.8,0,0,1,128.64-23.6a5.835,5.835,0,0,1,2.122-.411,8.43,8.43,0,0,1,2.987.514,5.955,5.955,0,0,1,2.429,1.747,9.161,9.161,0,0,1,1.7,3.392,22.111,22.111,0,0,1,.754,5.448h8.488a38.912,38.912,0,0,0-1.312-10.844,21.976,21.976,0,0,0-3.546-7.349,13.422,13.422,0,0,0-5.109-4.163,14.558,14.558,0,0,0-6-1.285,11.923,11.923,0,0,0-5.361,1.336,13.882,13.882,0,0,0-4.8,4.112,22.438,22.438,0,0,0-3.434,6.938,32.78,32.78,0,0,0-1.312,9.816,31,31,0,0,0,1.033,8.583,19.7,19.7,0,0,0,2.708,5.91A15.82,15.82,0,0,0,123.782,4a27.787,27.787,0,0,0,4.356,2.518q2.178,1.131,4.3,2.056a19.56,19.56,0,0,1,3.8,2.159,9.579,9.579,0,0,1,2.708,3.084,9.868,9.868,0,0,1,1.033,4.831,11.54,11.54,0,0,1-.782,4.574,7.838,7.838,0,0,1-1.954,2.827,6.265,6.265,0,0,1-2.513,1.388,9.717,9.717,0,0,1-2.513.36,7.618,7.618,0,0,1-6.17-3.135,12.548,12.548,0,0,1-1.926-4.163A23.353,23.353,0,0,1,123.391,14.227ZM149.469-34.8v73.39H157.4V10.732q0-8.12,1.452-11.666T163.54-4.48q2.848,0,3.965,3.238a32.152,32.152,0,0,1,1.117,9.816V38.588h7.929V5.9a77.886,77.886,0,0,0-.475-8.994,25.941,25.941,0,0,0-1.647-6.887,10.628,10.628,0,0,0-3.211-4.42A8.226,8.226,0,0,0,166-15.993a6.975,6.975,0,0,0-4.579,2.107,15.268,15.268,0,0,0-3.853,6.733H157.4V-34.8ZM178.9,1.79a28.055,28.055,0,0,1,1.4-8.531,15.918,15.918,0,0,1,3.127-5.448,10.938,10.938,0,0,1,4.272-2.929,13.732,13.732,0,0,1,4.774-.874,17.929,17.929,0,0,1,4.411.565,9.609,9.609,0,0,1,4.076,2.21,11.959,11.959,0,0,1,3.015,4.574,21.268,21.268,0,0,1,1.173,7.76v27.65q0,3.6.223,6.887a20.761,20.761,0,0,0,.782,4.934h-8.041q-.223-1.233-.363-2.518t-.2-2.621a11.877,11.877,0,0,1-4.467,5.037,10.621,10.621,0,0,1-5.249,1.439A8.258,8.258,0,0,1,183.978,39a8.646,8.646,0,0,1-3.127-2.878,15.31,15.31,0,0,1-2.094-4.934A29.218,29.218,0,0,1,178,24.095a26.837,26.837,0,0,1,.866-7.452,13.976,13.976,0,0,1,2.234-4.677,9.147,9.147,0,0,1,3.127-2.621,21.04,21.04,0,0,1,3.546-1.388,34.826,34.826,0,0,1,3.518-.822,12.634,12.634,0,0,0,3.071-.925,4.982,4.982,0,0,0,2.122-1.8,5.982,5.982,0,0,0,.726-3.443,13.448,13.448,0,0,0-.419-3.752,5.584,5.584,0,0,0-1.117-2.159,3.39,3.39,0,0,0-1.619-1.028,7.353,7.353,0,0,0-1.982-.257,4.3,4.3,0,0,0-3.685,1.85q-1.34,1.85-1.564,6.167Zm18.316,10.793a3.8,3.8,0,0,1-1.256,1.285,8.614,8.614,0,0,1-1.619.771,14.628,14.628,0,0,1-1.815.514,19.509,19.509,0,0,0-1.9.514,9.541,9.541,0,0,0-1.759.822,5.1,5.1,0,0,0-1.508,1.388,7.05,7.05,0,0,0-1.033,2.21,12.325,12.325,0,0,0-.391,3.392,11.873,11.873,0,0,0,.391,3.289,5.553,5.553,0,0,0,1.061,2.107,3.618,3.618,0,0,0,1.564,1.079,5.609,5.609,0,0,0,1.843.308,4.612,4.612,0,0,0,3.63-1.439,9.1,9.1,0,0,0,1.9-3.443,17.968,17.968,0,0,0,.754-4.06q.14-2.056.14-3.289Zm10.721-27.136V38.588h7.929V14.638a53.28,53.28,0,0,1,.391-6.681,22.123,22.123,0,0,1,1.312-5.4,9.436,9.436,0,0,1,2.429-3.649,5.359,5.359,0,0,1,3.685-1.336,7.79,7.79,0,0,1,1.508.154,8.917,8.917,0,0,1,1.34.36V-15.479a3.694,3.694,0,0,0-1.731-.514,5.643,5.643,0,0,0-2.9.822,10.053,10.053,0,0,0-2.624,2.313,15.879,15.879,0,0,0-2.178,3.6,24.017,24.017,0,0,0-1.508,4.574h-.112v-9.868Zm36.8,20.866h-12.9a29.663,29.663,0,0,1,.363-3.495,15.3,15.3,0,0,1,1.061-3.7,8.682,8.682,0,0,1,2.01-2.929,4.424,4.424,0,0,1,3.155-1.182,4.6,4.6,0,0,1,4.328,2.878A25.466,25.466,0,0,1,244.732,6.312Zm-12.9,9.251h20.828A68.2,68.2,0,0,0,252.1,3.743a43.263,43.263,0,0,0-2.541-10.073,19.632,19.632,0,0,0-4.5-7.041,8.983,8.983,0,0,0-6.422-2.621,9.4,9.4,0,0,0-6,2.159,18.1,18.1,0,0,0-4.663,5.91A34.178,34.178,0,0,0,224.964.967a54.9,54.9,0,0,0-1.061,11.1,57.475,57.475,0,0,0,1.033,11.307,34.071,34.071,0,0,0,2.932,8.84,15.88,15.88,0,0,0,4.635,5.7,10.141,10.141,0,0,0,6.142,2,10.587,10.587,0,0,0,8.376-4.111q3.462-4.111,5.137-13.671h-6.98a10.1,10.1,0,0,1-2.122,4.677,5.121,5.121,0,0,1-4.132,2.21,5.611,5.611,0,0,1-5.137-3.186Q232,22.656,231.833,15.563Z" transform="translate(-0.448 36.55)" fill="#fff"/>
  </g>
</svg>
